<svg xmlns="http://www.w3.org/2000/svg" width="65.722" height="57.636" viewBox="0 0 65.722 57.636">
  <g id="Arrow_icon" data-name="Arrow icon" transform="translate(70.679 19.053) rotate(107)">
    <g id="Group_586" data-name="Group 586" transform="translate(0 0)">
      <path id="Path_1090" data-name="Path 1090" d="M26.8,0A54.814,54.814,0,0,0,14.26,3.168,32.025,32.025,0,0,0,8.573,6.084a22.238,22.238,0,0,0-4.66,4,16.975,16.975,0,0,0-3.04,4.894,12.139,12.139,0,0,0-.824,5.478,12.548,12.548,0,0,0,1.793,5.257,21.181,21.181,0,0,0,3.608,4.373,59.056,59.056,0,0,0,9.257,6.725A52,52,0,0,1,23.5,43.292a15.775,15.775,0,0,1,3.047,3.991,10.719,10.719,0,0,1,1.136,4.586A9.207,9.207,0,0,1,26.5,56.485a8.846,8.846,0,0,1-4.015,3.5,9.482,9.482,0,0,0,4.408-3.339,9.906,9.906,0,0,0,1.671-4.756,11.231,11.231,0,0,0-.771-4.959,16.144,16.144,0,0,0-2.878-4.474c-4.856-5.529-12.2-9.07-16.687-14.1a17.362,17.362,0,0,1-2.747-3.9,9.455,9.455,0,0,1-1.025-4.144,11.142,11.142,0,0,1,3.708-7.722,18.122,18.122,0,0,1,3.9-2.9,26.789,26.789,0,0,1,4.788-2.077,48.136,48.136,0,0,1,10.952-2.07Z" transform="translate(0 5.183)" fill="#fff"/>
      <g id="Group_585" data-name="Group 585" transform="translate(23.346)">
        <path id="Path_1091" data-name="Path 1091" d="M2.618,18.121,17,6.794,0,0Z" transform="translate(0 0)" fill="#fff"/>
      </g>
    </g>
    <path id="Path_1092" data-name="Path 1092" d="M2.458,19.469a18.241,18.241,0,0,1-1.191-5.861,11.867,11.867,0,0,1,1.19-5.575,14.6,14.6,0,0,1,3.6-4.515A37.087,37.087,0,0,1,10.985,0,17.358,17.358,0,0,0,5.332,2.594a14.726,14.726,0,0,0-2.4,2.1A13.38,13.38,0,0,0,1.108,7.37,11.073,11.073,0,0,0,.1,13.7,12.037,12.037,0,0,0,2.458,19.469Z" transform="translate(9.516 14.135)" fill="#fff"/>
    <path id="Path_1093" data-name="Path 1093" d="M2.5,19.683a12.452,12.452,0,0,0,3.052-4.738,12.254,12.254,0,0,0,.7-5.741,11.31,11.31,0,0,0-2.1-5.4A13.033,13.033,0,0,0,2.277,1.654,19.738,19.738,0,0,0,0,0C.519.8,1.123,1.477,1.626,2.225l.716,1.137c.11.192.254.363.353.56l.287.595A13.651,13.651,0,0,1,4.506,9.409a15.4,15.4,0,0,1-.269,5.149A26.365,26.365,0,0,1,2.5,19.683Z" transform="translate(17.722 45.318)" fill="#fff"/>
  </g>
</svg>
